<svg width="114" height="24" viewBox="0 0 114 24" fill="none" xmlns="http://www.w3.org/2000/svg">
<path d="M59.1418 6.08203V23.8364" stroke="#FF8200" stroke-width="1.65808" stroke-miterlimit="10"/>
<path d="M25.0844 6.01953V23.7739" stroke="#FF8200" stroke-width="1.65808" stroke-miterlimit="10"/>
<path d="M33.7603 23.7974H25.463V6.00781H33.4815C37.1102 6.00781 39.2667 7.80757 39.2667 10.6203C39.2667 12.7739 37.9723 14.1675 36.2469 14.6746C38.3279 15.1051 39.6722 16.9304 39.6722 18.9576C39.6722 21.8968 37.5157 23.7974 33.7591 23.7974H33.7603ZM32.6437 9.47965H29.8016V13.2044H32.6437C34.0648 13.2044 34.8514 12.5708 34.8514 11.3548C34.8514 10.1387 34.0648 9.47965 32.6437 9.47965ZM32.9481 16.3722H29.8016V20.3001H32.9993C34.4459 20.3001 35.2825 19.641 35.2825 18.3739C35.2825 17.1067 34.3948 16.3722 32.9481 16.3722Z" fill="#222240"/>
<path d="M47.5629 9.45312C49.6695 9.45312 51.1661 10.4162 51.9271 11.6578V9.65621H56.2657V23.7965H51.9271V21.7948C51.1405 23.0364 49.6439 23.9995 47.5373 23.9995C44.0864 23.9995 41.321 21.1613 41.321 16.7008C41.321 12.2403 44.0864 9.45312 47.5629 9.45312ZM48.8317 13.229C47.2073 13.229 45.7364 14.445 45.7364 16.7008C45.7364 18.9566 47.2086 20.2237 48.8317 20.2237C50.4549 20.2237 51.9271 18.9821 51.9271 16.7263C51.9271 14.4706 50.4805 13.229 48.8317 13.229Z" fill="#222240"/>
<path d="M66.694 6.00781C71.0582 6.00781 73.2403 8.51653 73.2403 11.6089C73.2403 13.8392 72.0226 15.9417 69.2816 16.7529L73.3925 23.7974H68.495L64.7895 17.0824H63.7496V23.7974H59.411V6.00781H66.694ZM66.4407 9.60611H63.7508V14.0155H66.4407C68.0651 14.0155 68.8262 13.1789 68.8262 11.7853C68.8262 10.4671 68.0651 9.60611 66.4407 9.60611Z" fill="#222240"/>
<path d="M82.2475 23.9995C78.0855 23.9995 75.0924 21.2124 75.0924 16.7263C75.0924 12.2403 78.0356 9.45312 82.2475 9.45312C86.4595 9.45312 89.3016 12.1905 89.3016 16.4977C89.3016 16.9027 89.276 17.3344 89.2249 17.7648H79.4055C79.5577 19.6145 80.6999 20.4766 82.0953 20.4766C83.313 20.4766 83.9986 19.8686 84.3542 19.1086H88.9728C88.2873 21.8702 85.7752 23.9995 82.2488 23.9995H82.2475ZM79.431 15.3583H84.8619C84.8619 13.8127 83.6442 12.9262 82.1976 12.9262C80.751 12.9262 79.6855 13.7884 79.4323 15.3583H79.431Z" fill="#222240"/>
<path d="M97.3444 23.9995C93.5635 23.9995 91.0259 21.8958 90.8237 19.1597H95.1112C95.2135 20.1483 96.1012 20.8062 97.2933 20.8062C98.4099 20.8062 98.9932 20.2991 98.9932 19.6655C98.9932 17.3854 91.2791 19.032 91.2791 13.837C91.2791 11.4304 93.3346 9.45312 97.0388 9.45312C100.743 9.45312 102.723 11.4803 103.002 14.2675H98.9932C98.8666 13.3044 98.1299 12.6708 96.9122 12.6708C95.8966 12.6708 95.3389 13.0757 95.3389 13.7604C95.3389 16.0162 103.002 14.4195 103.079 19.6899C103.079 22.1475 100.896 23.9983 97.3432 23.9983L97.3444 23.9995Z" fill="#222240"/>
<path d="M106.427 13.2555H104.702V9.65723H106.427V6.21094H110.767V9.65723H113.609V13.2555H110.767V18.9321C110.767 19.7687 111.123 20.1238 112.087 20.1238H113.635V23.7975H111.427C108.484 23.7975 106.428 22.5559 106.428 18.881V13.2555H106.427Z" fill="#222240"/>
<path d="M11.0822 1.71484H0V12.7663H11.0822V1.71484Z" fill="#222240"/>
<path d="M18.3822 0H12.7491V5.61695H18.3822V0Z" fill="#FF8200"/>
<path d="M8.0709 15.4453H2.43787V21.0623H8.0709V15.4453Z" fill="#222240"/>
<path d="M22.1643 12.7656H11.0822V23.8171H22.1643V12.7656Z" fill="#FF8200"/>
<path d="M17.7856 15.0452H15.7399C15.6924 15.0452 15.6547 15.0076 15.6547 14.9601C15.6547 14.9127 15.6924 14.875 15.7399 14.875H17.7856C17.8331 14.875 17.8709 14.9127 17.8709 14.9601C17.8709 15.0076 17.8331 15.0452 17.7856 15.0452Z" fill="#21365F"/>
<path d="M20.4 22.3109H13.1243C13.0768 22.3109 13.0391 22.2732 13.0391 22.2257C13.0391 22.1783 13.0768 22.1406 13.1243 22.1406H20.4C20.4475 22.1406 20.4852 22.1783 20.4852 22.2257C20.4852 22.2732 20.4475 22.3109 20.4 22.3109Z" fill="#21365F"/>
<path d="M18.8086 17.0039H17.558V22.2256H18.8086V17.0039Z" fill="#BDC3D8"/>
<path d="M15.9664 17.0039H14.7158V22.2256H15.9664V17.0039Z" fill="#BDC3D8"/>
<path d="M17.558 14.957H15.9664V21.542H17.558V14.957Z" fill="#BDC3D8"/>
<path d="M17.558 21.5469H15.9664V22.2279H17.558V21.5469Z" fill="#BDC3D8"/>
<path d="M20.1723 16.3203H18.8085V22.2243H20.1723V16.3203Z" fill="#BDC3D8"/>
<path d="M14.7159 16.3203H13.3521V22.2243H14.7159V16.3203Z" fill="#BDC3D8"/>
<path d="M17.558 17.0039H18.4676V21.7854C18.4676 21.8414 18.4225 21.8851 18.3677 21.8851H17.5592V17.0039H17.558Z" fill="white"/>
<path d="M15.6254 17.0012H14.7158V21.8825H15.3977C15.5232 21.8825 15.6254 21.7803 15.6254 21.6551V17V17.0012Z" fill="white"/>
<path d="M16.9893 14.957H15.9664V21.0884H16.9893V14.957Z" fill="white"/>
<path d="M15.9664 21.5469H17.1038V21.8497C17.1038 21.8703 17.0867 21.8874 17.066 21.8874H15.9664V21.5469Z" fill="white"/>
<path d="M18.8085 16.3215H19.7181V21.784C19.7181 21.84 19.673 21.8838 19.6182 21.8838H18.8097V16.3203L18.8085 16.3215Z" fill="white"/>
<path d="M13.3521 16.3215H14.2617V21.784C14.2617 21.84 14.2166 21.8838 14.1618 21.8838H13.3533V16.3203L13.3521 16.3215Z" fill="white"/>
<path d="M18.8085 22.3099H17.5579C17.5104 22.3099 17.4727 22.2722 17.4727 22.2248V17.0031C17.4727 16.9557 17.5104 16.918 17.5579 16.918H18.8085C18.856 16.918 18.8937 16.9557 18.8937 17.0031V22.2248C18.8937 22.2722 18.856 22.3099 18.8085 22.3099ZM17.6431 22.1397H18.7232V17.0882H17.6431V22.1397Z" fill="#21365F"/>
<path d="M15.9664 22.3099H14.7158C14.6684 22.3099 14.6306 22.2722 14.6306 22.2248V17.0031C14.6306 16.9557 14.6684 16.918 14.7158 16.918H15.9664C16.0139 16.918 16.0517 16.9557 16.0517 17.0031V22.2248C16.0517 22.2722 16.0139 22.3099 15.9664 22.3099ZM14.8011 22.1397H15.8812V17.0882H14.8011V22.1397Z" fill="#21365F"/>
<path d="M17.558 21.6302H15.9665C15.919 21.6302 15.8812 21.5925 15.8812 21.545V14.9601C15.8812 14.9127 15.919 14.875 15.9665 14.875H17.558C17.6055 14.875 17.6432 14.9127 17.6432 14.9601V21.545C17.6432 21.5925 17.6055 21.6302 17.558 21.6302ZM16.0517 21.4599H17.4727V15.0452H16.0517V21.4599Z" fill="#21365F"/>
<path d="M17.558 22.3122H15.9665C15.919 22.3122 15.8812 22.2745 15.8812 22.2271V21.5461C15.8812 21.4986 15.919 21.4609 15.9665 21.4609H17.558C17.6055 21.4609 17.6432 21.4986 17.6432 21.5461V22.2271C17.6432 22.2745 17.6055 22.3122 17.558 22.3122ZM16.0517 22.1419H17.4727V21.6312H16.0517V22.1419Z" fill="#21365F"/>
<path d="M20.1723 22.3086H18.8085C18.761 22.3086 18.7233 22.2709 18.7233 22.2234V16.3195C18.7233 16.2721 18.761 16.2344 18.8085 16.2344H20.1723C20.2198 16.2344 20.2576 16.2721 20.2576 16.3195V22.2234C20.2576 22.2709 20.2198 22.3086 20.1723 22.3086ZM18.8937 22.1383H20.0871V16.4058H18.8937V22.1383Z" fill="#21365F"/>
<path d="M14.7159 22.3086H13.3521C13.3046 22.3086 13.2668 22.2709 13.2668 22.2234V16.3195C13.2668 16.2721 13.3046 16.2344 13.3521 16.2344H14.7159C14.7634 16.2344 14.8011 16.2721 14.8011 16.3195V22.2234C14.8011 22.2709 14.7634 22.3086 14.7159 22.3086ZM13.4373 22.1383H14.6307V16.4058H13.4373V22.1383Z" fill="#21365F"/>
<path d="M14.7159 17.0882H13.3521C13.3046 17.0882 13.2668 17.0505 13.2668 17.0031C13.2668 16.9557 13.3046 16.918 13.3521 16.918H14.7159C14.7634 16.918 14.8011 16.9557 14.8011 17.0031C14.8011 17.0505 14.7634 17.0882 14.7159 17.0882Z" fill="#21365F"/>
<path d="M14.7159 17.6546H13.3521C13.3046 17.6546 13.2668 17.6169 13.2668 17.5695C13.2668 17.5221 13.3046 17.4844 13.3521 17.4844H14.7159C14.7634 17.4844 14.8011 17.5221 14.8011 17.5695C14.8011 17.6169 14.7634 17.6546 14.7159 17.6546Z" fill="#21365F"/>
<path d="M14.7159 18.2249H13.3521C13.3046 18.2249 13.2668 18.1872 13.2668 18.1398C13.2668 18.0924 13.3046 18.0547 13.3521 18.0547H14.7159C14.7634 18.0547 14.8011 18.0924 14.8011 18.1398C14.8011 18.1872 14.7634 18.2249 14.7159 18.2249Z" fill="#21365F"/>
<path d="M14.7159 18.7913H13.3521C13.3046 18.7913 13.2668 18.7536 13.2668 18.7062C13.2668 18.6588 13.3046 18.6211 13.3521 18.6211H14.7159C14.7634 18.6211 14.8011 18.6588 14.8011 18.7062C14.8011 18.7536 14.7634 18.7913 14.7159 18.7913Z" fill="#21365F"/>
<path d="M14.7159 19.3577H13.3521C13.3046 19.3577 13.2668 19.3201 13.2668 19.2726C13.2668 19.2252 13.3046 19.1875 13.3521 19.1875H14.7159C14.7634 19.1875 14.8011 19.2252 14.8011 19.2726C14.8011 19.3201 14.7634 19.3577 14.7159 19.3577Z" fill="#21365F"/>
<path d="M14.7159 19.9281H13.3521C13.3046 19.9281 13.2668 19.8904 13.2668 19.8429C13.2668 19.7955 13.3046 19.7578 13.3521 19.7578H14.7159C14.7634 19.7578 14.8011 19.7955 14.8011 19.8429C14.8011 19.8904 14.7634 19.9281 14.7159 19.9281Z" fill="#21365F"/>
<path d="M14.7159 20.4945H13.3521C13.3046 20.4945 13.2668 20.4568 13.2668 20.4093C13.2668 20.3619 13.3046 20.3242 13.3521 20.3242H14.7159C14.7634 20.3242 14.8011 20.3619 14.8011 20.4093C14.8011 20.4568 14.7634 20.4945 14.7159 20.4945Z" fill="#21365F"/>
<path d="M14.7159 21.0609H13.3521C13.3046 21.0609 13.2668 21.0232 13.2668 20.9757C13.2668 20.9283 13.3046 20.8906 13.3521 20.8906H14.7159C14.7634 20.8906 14.8011 20.9283 14.8011 20.9757C14.8011 21.0232 14.7634 21.0609 14.7159 21.0609Z" fill="#21365F"/>
<path d="M14.7159 21.6312H13.3521C13.3046 21.6312 13.2668 21.5935 13.2668 21.5461C13.2668 21.4986 13.3046 21.4609 13.3521 21.4609H14.7159C14.7634 21.4609 14.8011 21.4986 14.8011 21.5461C14.8011 21.5935 14.7634 21.6312 14.7159 21.6312Z" fill="#21365F"/>
<path d="M20.1723 17.0882H18.8085C18.761 17.0882 18.7233 17.0505 18.7233 17.0031C18.7233 16.9557 18.761 16.918 18.8085 16.918H20.1723C20.2198 16.918 20.2576 16.9557 20.2576 17.0031C20.2576 17.0505 20.2198 17.0882 20.1723 17.0882Z" fill="#21365F"/>
<path d="M20.1723 17.6546H18.8085C18.761 17.6546 18.7233 17.6169 18.7233 17.5695C18.7233 17.5221 18.761 17.4844 18.8085 17.4844H20.1723C20.2198 17.4844 20.2576 17.5221 20.2576 17.5695C20.2576 17.6169 20.2198 17.6546 20.1723 17.6546Z" fill="#21365F"/>
<path d="M20.1723 18.2249H18.8085C18.761 18.2249 18.7233 18.1872 18.7233 18.1398C18.7233 18.0924 18.761 18.0547 18.8085 18.0547H20.1723C20.2198 18.0547 20.2576 18.0924 20.2576 18.1398C20.2576 18.1872 20.2198 18.2249 20.1723 18.2249Z" fill="#21365F"/>
<path d="M20.1723 18.7913H18.8085C18.761 18.7913 18.7233 18.7536 18.7233 18.7062C18.7233 18.6588 18.761 18.6211 18.8085 18.6211H20.1723C20.2198 18.6211 20.2576 18.6588 20.2576 18.7062C20.2576 18.7536 20.2198 18.7913 20.1723 18.7913Z" fill="#21365F"/>
<path d="M20.1723 19.3577H18.8085C18.761 19.3577 18.7233 19.3201 18.7233 19.2726C18.7233 19.2252 18.761 19.1875 18.8085 19.1875H20.1723C20.2198 19.1875 20.2576 19.2252 20.2576 19.2726C20.2576 19.3201 20.2198 19.3577 20.1723 19.3577Z" fill="#21365F"/>
<path d="M20.1723 19.9281H18.8085C18.761 19.9281 18.7233 19.8904 18.7233 19.8429C18.7233 19.7955 18.761 19.7578 18.8085 19.7578H20.1723C20.2198 19.7578 20.2576 19.7955 20.2576 19.8429C20.2576 19.8904 20.2198 19.9281 20.1723 19.9281Z" fill="#21365F"/>
<path d="M20.1723 20.4945H18.8085C18.761 20.4945 18.7233 20.4568 18.7233 20.4093C18.7233 20.3619 18.761 20.3242 18.8085 20.3242H20.1723C20.2198 20.3242 20.2576 20.3619 20.2576 20.4093C20.2576 20.4568 20.2198 20.4945 20.1723 20.4945Z" fill="#21365F"/>
<path d="M20.1723 21.0609H18.8085C18.761 21.0609 18.7233 21.0232 18.7233 20.9757C18.7233 20.9283 18.761 20.8906 18.8085 20.8906H20.1723C20.2198 20.8906 20.2576 20.9283 20.2576 20.9757C20.2576 21.0232 20.2198 21.0609 20.1723 21.0609Z" fill="#21365F"/>
<path d="M20.1723 21.6312H18.8085C18.761 21.6312 18.7233 21.5935 18.7233 21.5461C18.7233 21.4986 18.761 21.4609 18.8085 21.4609H20.1723C20.2198 21.4609 20.2576 21.4986 20.2576 21.5461C20.2576 21.5935 20.2198 21.6312 20.1723 21.6312Z" fill="#21365F"/>
<path d="M18.2971 18.2249H18.0694C18.0219 18.2249 17.9841 18.1872 17.9841 18.1398C17.9841 18.0924 18.0219 18.0547 18.0694 18.0547H18.2971C18.3446 18.0547 18.3823 18.0924 18.3823 18.1398C18.3823 18.1872 18.3446 18.2249 18.2971 18.2249Z" fill="#21365F"/>
<path d="M18.2971 17.6546H18.0694C18.0219 17.6546 17.9841 17.6169 17.9841 17.5695C17.9841 17.5221 18.0219 17.4844 18.0694 17.4844H18.2971C18.3446 17.4844 18.3823 17.5221 18.3823 17.5695C18.3823 17.6169 18.3446 17.6546 18.2971 17.6546Z" fill="#21365F"/>
<path d="M18.2971 18.7913H18.0694C18.0219 18.7913 17.9841 18.7536 17.9841 18.7062C17.9841 18.6588 18.0219 18.6211 18.0694 18.6211H18.2971C18.3446 18.6211 18.3823 18.6588 18.3823 18.7062C18.3823 18.7536 18.3446 18.7913 18.2971 18.7913Z" fill="#21365F"/>
<path d="M18.2971 19.3577H18.0694C18.0219 19.3577 17.9841 19.3201 17.9841 19.2726C17.9841 19.2252 18.0219 19.1875 18.0694 19.1875H18.2971C18.3446 19.1875 18.3823 19.2252 18.3823 19.2726C18.3823 19.3201 18.3446 19.3577 18.2971 19.3577Z" fill="#21365F"/>
<path d="M18.2971 19.9281H18.0694C18.0219 19.9281 17.9841 19.8904 17.9841 19.8429C17.9841 19.7955 18.0219 19.7578 18.0694 19.7578H18.2971C18.3446 19.7578 18.3823 19.7955 18.3823 19.8429C18.3823 19.8904 18.3446 19.9281 18.2971 19.9281Z" fill="#21365F"/>
<path d="M18.2971 20.4945H18.0694C18.0219 20.4945 17.9841 20.4568 17.9841 20.4093C17.9841 20.3619 18.0219 20.3242 18.0694 20.3242H18.2971C18.3446 20.3242 18.3823 20.3619 18.3823 20.4093C18.3823 20.4568 18.3446 20.4945 18.2971 20.4945Z" fill="#21365F"/>
<path d="M18.2971 21.0609H18.0694C18.0219 21.0609 17.9841 21.0232 17.9841 20.9757C17.9841 20.9283 18.0219 20.8906 18.0694 20.8906H18.2971C18.3446 20.8906 18.3823 20.9283 18.3823 20.9757C18.3823 21.0232 18.3446 21.0609 18.2971 21.0609Z" fill="#21365F"/>
<path d="M18.2971 21.6312H18.0694C18.0219 21.6312 17.9841 21.5935 17.9841 21.5461C17.9841 21.4986 18.0219 21.4609 18.0694 21.4609H18.2971C18.3446 21.4609 18.3823 21.4986 18.3823 21.5461C18.3823 21.5935 18.3446 21.6312 18.2971 21.6312Z" fill="#21365F"/>
<path d="M15.455 18.2249H15.2273C15.1798 18.2249 15.1421 18.1872 15.1421 18.1398C15.1421 18.0924 15.1798 18.0547 15.2273 18.0547H15.455C15.5025 18.0547 15.5403 18.0924 15.5403 18.1398C15.5403 18.1872 15.5025 18.2249 15.455 18.2249Z" fill="#21365F"/>
<path d="M15.455 17.6546H15.2273C15.1798 17.6546 15.1421 17.6169 15.1421 17.5695C15.1421 17.5221 15.1798 17.4844 15.2273 17.4844H15.455C15.5025 17.4844 15.5403 17.5221 15.5403 17.5695C15.5403 17.6169 15.5025 17.6546 15.455 17.6546Z" fill="#21365F"/>
<path d="M15.455 18.7913H15.2273C15.1798 18.7913 15.1421 18.7536 15.1421 18.7062C15.1421 18.6588 15.1798 18.6211 15.2273 18.6211H15.455C15.5025 18.6211 15.5403 18.6588 15.5403 18.7062C15.5403 18.7536 15.5025 18.7913 15.455 18.7913Z" fill="#21365F"/>
<path d="M15.455 19.3577H15.2273C15.1798 19.3577 15.1421 19.3201 15.1421 19.2726C15.1421 19.2252 15.1798 19.1875 15.2273 19.1875H15.455C15.5025 19.1875 15.5403 19.2252 15.5403 19.2726C15.5403 19.3201 15.5025 19.3577 15.455 19.3577Z" fill="#21365F"/>
<path d="M15.455 19.9281H15.2273C15.1798 19.9281 15.1421 19.8904 15.1421 19.8429C15.1421 19.7955 15.1798 19.7578 15.2273 19.7578H15.455C15.5025 19.7578 15.5403 19.7955 15.5403 19.8429C15.5403 19.8904 15.5025 19.9281 15.455 19.9281Z" fill="#21365F"/>
<path d="M15.455 20.4945H15.2273C15.1798 20.4945 15.1421 20.4568 15.1421 20.4093C15.1421 20.3619 15.1798 20.3242 15.2273 20.3242H15.455C15.5025 20.3242 15.5403 20.3619 15.5403 20.4093C15.5403 20.4568 15.5025 20.4945 15.455 20.4945Z" fill="#21365F"/>
<path d="M15.455 21.0609H15.2273C15.1798 21.0609 15.1421 21.0232 15.1421 20.9757C15.1421 20.9283 15.1798 20.8906 15.2273 20.8906H15.455C15.5025 20.8906 15.5403 20.9283 15.5403 20.9757C15.5403 21.0232 15.5025 21.0609 15.455 21.0609Z" fill="#21365F"/>
<path d="M15.455 21.6312H15.2273C15.1798 21.6312 15.1421 21.5935 15.1421 21.5461C15.1421 21.4986 15.1798 21.4609 15.2273 21.4609H15.455C15.5025 21.4609 15.5403 21.4986 15.5403 21.5461C15.5403 21.5935 15.5025 21.6312 15.455 21.6312Z" fill="#21365F"/>
<path d="M14.8303 16.4085H13.2388C13.1913 16.4085 13.1536 16.3708 13.1536 16.3234C13.1536 16.276 13.1913 16.2383 13.2388 16.2383H14.8303C14.8778 16.2383 14.9156 16.276 14.9156 16.3234C14.9156 16.3708 14.8778 16.4085 14.8303 16.4085Z" fill="#21365F"/>
<path d="M20.2867 16.4085H18.6952C18.6477 16.4085 18.61 16.3708 18.61 16.3234C18.61 16.276 18.6477 16.2383 18.6952 16.2383H20.2867C20.3342 16.2383 20.372 16.276 20.372 16.3234C20.372 16.3708 20.3342 16.4085 20.2867 16.4085Z" fill="#21365F"/>
<path d="M16.5074 21.1749C16.4597 21.1749 16.4219 21.1372 16.4219 21.0898V15.4133C16.4219 15.3658 16.4597 15.3281 16.5074 15.3281C16.555 15.3281 16.5928 15.3658 16.5928 15.4133V21.0898C16.5928 21.1372 16.555 21.1749 16.5074 21.1749Z" fill="#21365F"/>
<path d="M17.0187 21.1749C16.9711 21.1749 16.9332 21.1372 16.9332 21.0898V15.4133C16.9332 15.3658 16.9711 15.3281 17.0187 15.3281C17.0663 15.3281 17.1042 15.3658 17.1042 15.4133V21.0898C17.1042 21.1372 17.0663 21.1749 17.0187 21.1749Z" fill="#21365F"/>
<path d="M9.44317 6.93474C9.44317 4.73855 7.66047 2.95703 5.46011 2.95703C3.25975 2.95703 1.47705 4.73733 1.47705 6.93474C1.47705 9.13214 3.25975 10.9124 5.46011 10.9124C7.66047 10.9124 9.44317 9.13214 9.44317 6.93474Z" fill="white"/>
<path d="M8.64194 4.54297C8.83678 5.01115 8.94393 5.52554 8.94393 6.06425C8.94393 8.26044 7.16123 10.042 4.96087 10.042C3.66038 10.042 2.50479 9.41934 1.77783 8.45501C2.37572 9.89725 3.79798 10.9114 5.45891 10.9114C7.65805 10.9114 9.44196 9.13114 9.44196 6.93373C9.44196 6.03628 9.14363 5.20815 8.64194 4.54297Z" fill="#BDC3D8"/>
<path d="M5.46012 11.0035C3.21227 11.0035 1.38452 9.17703 1.38452 6.93341C1.38452 4.68979 3.21349 2.86328 5.46012 2.86328C7.70676 2.86328 9.53573 4.68979 9.53573 6.93341C9.53573 9.17703 7.70676 11.0035 5.46012 11.0035ZM5.46012 3.04812C3.31578 3.04812 1.57083 4.79072 1.57083 6.93219C1.57083 9.07366 3.31578 10.8163 5.46012 10.8163C7.60447 10.8163 9.34943 9.07366 9.34943 6.93219C9.34943 4.79072 7.60447 3.04812 5.46012 3.04812Z" fill="#21365F"/>
<path d="M5.46017 9.60505C6.93768 9.60505 8.13544 8.40891 8.13544 6.93339C8.13544 5.45787 6.93768 4.26172 5.46017 4.26172C3.98267 4.26172 2.78491 5.45787 2.78491 6.93339C2.78491 8.40891 3.98267 9.60505 5.46017 9.60505Z" fill="white"/>
<path d="M7.72626 5.51562C7.74818 5.65304 7.76279 5.7941 7.76279 5.9376C7.76279 7.41388 6.56458 8.60926 5.08753 8.60926C4.13164 8.60926 3.29509 8.10703 2.82141 7.3543C3.02477 8.62872 4.12677 9.60399 5.46014 9.60399C6.93841 9.60399 8.1354 8.4074 8.1354 6.93233C8.1354 6.41185 7.98319 5.92665 7.72504 5.51562H7.72626Z" fill="#BDC3D8"/>
<path d="M5.46018 9.69857C3.9332 9.69857 2.69116 8.4582 2.69116 6.93327C2.69116 5.40834 3.9332 4.16797 5.46018 4.16797C6.98717 4.16797 8.22921 5.40834 8.22921 6.93327C8.22921 8.4582 6.98717 9.69857 5.46018 9.69857ZM5.46018 4.35402C4.03671 4.35402 2.87747 5.51049 2.87747 6.93327C2.87747 8.35605 4.03549 9.51252 5.46018 9.51252C6.88488 9.51252 8.0429 8.35605 8.0429 6.93327C8.0429 5.51049 6.88488 4.35402 5.46018 4.35402Z" fill="#21365F"/>
<path d="M4.34012 6.40431C4.28883 6.40431 4.24609 6.36297 4.24609 6.31068V3.9491C4.24609 3.89803 4.28761 3.85547 4.34012 3.85547C4.39262 3.85547 4.43414 3.89681 4.43414 3.9491V6.31068C4.43414 6.36175 4.39262 6.40431 4.34012 6.40431Z" fill="#21365F"/>
<path d="M3.46951 6.40431C3.41822 6.40431 3.37549 6.36297 3.37549 6.31068V3.9491C3.37549 3.89803 3.417 3.85547 3.46951 3.85547C3.52202 3.85547 3.56353 3.89681 3.56353 3.9491V6.31068C3.56353 6.36175 3.52202 6.40431 3.46951 6.40431Z" fill="#21365F"/>
<path d="M5.21072 6.40431C5.15944 6.40431 5.1167 6.36297 5.1167 6.31068V3.9491C5.1167 3.89803 5.15822 3.85547 5.21072 3.85547C5.26323 3.85547 5.30474 3.89681 5.30474 3.9491V6.31068C5.30474 6.36175 5.26323 6.40431 5.21072 6.40431Z" fill="#21365F"/>
<path d="M4.33989 6.3125C4.09879 6.56057 3.70912 6.56057 3.46924 6.3125V6.9339C3.46924 7.20873 3.69208 7.43127 3.96728 7.43127C4.00137 7.43127 4.02938 7.45924 4.02938 7.49329V10.6672C4.02938 10.8022 4.13897 10.9116 4.27413 10.9116H4.40686C4.54202 10.9116 4.65162 10.8022 4.65162 10.6672V7.49329C4.65162 7.45924 4.67962 7.43127 4.71372 7.43127C4.98891 7.43127 5.21175 7.20873 5.21175 6.9339V6.3125C4.97065 6.56057 4.58099 6.56057 4.3411 6.3125H4.33989Z" fill="white"/>
<path d="M4.92186 6.4791V6.8427C4.92186 7.04456 4.75748 7.20873 4.55534 7.20873H4.42383C4.38974 7.20873 4.36173 7.2367 4.36173 7.27075V10.5054C4.36173 10.5735 4.30571 10.6295 4.23752 10.6295H4.0293V10.6672C4.0293 10.8022 4.13889 10.9116 4.27405 10.9116H4.40678C4.54194 10.9116 4.65154 10.8022 4.65154 10.6672V7.49329C4.65154 7.45924 4.67954 7.43127 4.71364 7.43127C4.98883 7.43127 5.21167 7.20873 5.21167 6.9339V6.3125C5.12887 6.39762 5.0278 6.45235 4.92186 6.4791Z" fill="#BDC3D8"/>
<path d="M4.40565 11.0049H4.27292C4.08662 11.0049 3.93441 10.8529 3.93441 10.6668V7.52331C3.62268 7.5075 3.37427 7.24848 3.37427 6.93352V6.31212C3.37427 6.27442 3.39741 6.24037 3.43272 6.22578C3.46803 6.21119 3.50821 6.2197 3.535 6.24767C3.63364 6.34982 3.76515 6.40576 3.90396 6.40576C4.04278 6.40576 4.17429 6.34982 4.27292 6.24767C4.30824 6.21119 4.37156 6.21119 4.40687 6.24767C4.5055 6.34982 4.63701 6.40576 4.77583 6.40576C4.91464 6.40576 5.04616 6.34982 5.14479 6.24767C5.17158 6.22092 5.21176 6.21241 5.24707 6.22578C5.28239 6.24037 5.30552 6.27442 5.30552 6.31212V6.93352C5.30552 7.24848 5.05711 7.5075 4.74539 7.52331V10.6668C4.74539 10.8529 4.59318 11.0049 4.40687 11.0049H4.40565ZM3.56179 6.50304V6.93474C3.56179 7.15728 3.74323 7.33847 3.96607 7.33847C4.0513 7.33847 4.12193 7.40778 4.12193 7.49412V10.668C4.12193 10.7519 4.19012 10.82 4.27414 10.82H4.40687C4.49089 10.82 4.55908 10.7519 4.55908 10.668V7.49412C4.55908 7.409 4.62849 7.33847 4.71494 7.33847C4.93778 7.33847 5.11922 7.15728 5.11922 6.93474V6.50304C4.87933 6.63924 4.5603 6.61492 4.34111 6.4398C4.12315 6.61492 3.8029 6.63924 3.56301 6.50304H3.56179Z" fill="#21365F"/>
<path d="M6.95304 6.9176V4.07325C6.95304 4.00516 6.89702 3.94922 6.82762 3.94922C6.27844 3.94922 5.83276 4.39429 5.83276 4.94395V7.66912C5.83276 7.90139 5.97036 8.11298 6.18224 8.20662C6.27235 8.24675 6.32958 8.33552 6.32958 8.43402V10.6618C6.32958 10.7992 6.44161 10.9099 6.57799 10.9099H6.70219C6.83979 10.9099 6.9506 10.798 6.9506 10.6618V6.91882L6.95304 6.9176Z" fill="white"/>
<path d="M6.95305 6.9176V4.07325C6.95305 4.00516 6.89703 3.94922 6.82762 3.94922C6.77039 3.94922 6.7156 3.9553 6.6608 3.96381V6.63426V10.5013C6.6608 10.5694 6.60479 10.6253 6.53659 10.6253H6.32959V10.6594C6.32959 10.7968 6.44161 10.9075 6.578 10.9075H6.7022C6.8398 10.9075 6.95061 10.7956 6.95061 10.6594V6.91639L6.95305 6.9176Z" fill="#BDC3D8"/>
<path d="M6.70464 11.0022H6.58044C6.3917 11.0022 6.23827 10.849 6.23827 10.6605V8.43269C6.23827 8.37189 6.20174 8.31595 6.14572 8.29041C5.89975 8.18097 5.74023 7.93654 5.74023 7.66779V4.94262C5.74023 4.34311 6.22853 3.85547 6.82885 3.85547C6.9494 3.85547 7.04681 3.95275 7.04681 4.07314V10.6605C7.04681 10.849 6.89338 11.0022 6.70464 11.0022ZM6.82885 4.04152C6.33203 4.04152 5.92654 4.44647 5.92654 4.94262V7.66779C5.92654 7.86357 6.04222 8.04112 6.22122 8.12016C6.34421 8.17488 6.42457 8.29771 6.42457 8.43269V10.6605C6.42457 10.7456 6.49398 10.8162 6.58044 10.8162H6.70464C6.78988 10.8162 6.86051 10.7468 6.86051 10.6605V4.07314C6.86051 4.05611 6.8459 4.04152 6.82885 4.04152Z" fill="#21365F"/>
<path d="M1.99094 7.36292C1.94345 7.36292 1.90326 7.32643 1.89839 7.27901C1.88743 7.1647 1.88135 7.04796 1.88135 6.93365C1.88135 6.14686 2.13219 5.40021 2.60709 4.77516C2.63875 4.73381 2.6972 4.72651 2.73738 4.75692C2.77878 4.78853 2.78609 4.8469 2.75565 4.88825C2.3051 5.48047 2.06765 6.18821 2.06765 6.93365C2.06765 7.04309 2.07253 7.15254 2.08348 7.26198C2.08836 7.31306 2.05061 7.35927 1.99946 7.36413C1.99703 7.36413 1.99337 7.36413 1.99094 7.36413V7.36292Z" fill="#21365F"/>
<path d="M2.21382 8.29449C2.17607 8.29449 2.14076 8.2726 2.12737 8.23491C2.07866 8.10965 2.03604 7.98075 2.00195 7.85185C1.98855 7.80199 2.019 7.75091 2.0677 7.73754C2.11763 7.72416 2.16877 7.75456 2.18217 7.80321C2.21504 7.92603 2.25522 8.04764 2.3015 8.16681C2.31976 8.21423 2.29663 8.26896 2.24914 8.2872C2.23818 8.29206 2.226 8.29327 2.21504 8.29327L2.21382 8.29449Z" fill="#21365F"/>
<path d="M15.6826 2.63951C15.2711 2.72342 14.7182 2.74044 14.3164 2.66261C14.5112 3.01162 14.8595 3.27794 15.2808 3.3813C15.4245 3.41657 15.5231 3.55033 15.5231 3.69748V4.2301C15.5231 4.32374 15.4562 4.40035 15.3648 4.41859C15.1298 4.46359 14.9082 4.55965 14.7243 4.7068H16.6422C16.4595 4.55965 16.2367 4.46359 16.0017 4.41859C15.9104 4.40035 15.8434 4.32374 15.8434 4.2301V3.69748C15.8434 3.54912 15.942 3.41657 16.0857 3.3813C16.5241 3.27307 16.8833 2.99095 17.0733 2.62127C16.6702 2.53858 16.1064 2.55317 15.6851 2.63951H15.6826Z" fill="white"/>
<path d="M16.0845 3.38271C16.5228 3.27448 16.8821 2.99236 17.072 2.62268C17.0063 2.6093 16.9369 2.59836 16.8638 2.58984C16.6763 2.89264 16.3731 3.12612 16.0065 3.23557C15.8215 3.29029 15.6899 3.45568 15.6899 3.64903V4.26435C15.6899 4.40906 15.791 4.53188 15.9323 4.56715C16.0601 4.59876 16.1843 4.64619 16.2988 4.70943H16.6422C16.4595 4.56228 16.2367 4.46621 16.0017 4.42122C15.9103 4.40298 15.8434 4.32637 15.8434 4.23273V3.7001C15.8434 3.55174 15.942 3.41919 16.0857 3.38393L16.0845 3.38271Z" fill="#BDC3D8"/>
<path d="M17.1682 1.67176C17.1524 1.61582 17.1024 1.57812 17.0452 1.57812H14.2141C14.1629 1.71797 14.1508 1.86876 14.1508 2.02442C14.1508 2.25425 14.2116 2.46949 14.3188 2.66041C14.7206 2.73824 15.2735 2.72243 15.685 2.63731C16.1076 2.55097 16.6702 2.53516 17.0732 2.61907C17.1658 2.43787 17.2181 2.23723 17.2181 2.02442C17.2181 1.90281 17.2011 1.78485 17.1694 1.67176H17.1682Z" fill="white"/>
<path d="M17.2169 2.02442C17.2169 1.90281 17.1999 1.78485 17.1682 1.67176C17.1524 1.61582 17.1025 1.57812 17.0452 1.57812H14.2141C14.191 1.64014 14.1764 1.7046 14.1666 1.76905C14.8558 1.76905 16.2294 1.76905 16.5971 1.76905C16.6544 1.76905 16.7055 1.80796 16.7201 1.86268C16.7518 1.97577 16.7688 2.09373 16.7688 2.21534C16.7688 2.33694 16.7506 2.45855 16.7177 2.57286C16.8431 2.58137 16.9624 2.59596 17.0708 2.61907C17.1634 2.43787 17.2157 2.23723 17.2157 2.02442H17.2169Z" fill="#BDC3D8"/>
<path d="M15.5816 2.96402C15.5755 2.96402 15.5694 2.96402 15.5633 2.96037C15.539 2.95065 15.5268 2.92268 15.5377 2.89836L16.3426 0.964836C16.3475 0.952676 16.3585 0.942947 16.3706 0.938083L17.3923 0.576915C17.4166 0.568403 17.4446 0.580562 17.4532 0.606099C17.4617 0.631636 17.4495 0.658389 17.424 0.666902L16.4218 1.02077L15.6254 2.93484C15.6181 2.95308 15.5999 2.96402 15.5816 2.96402Z" fill="#21365F"/>
<path d="M16.6422 4.75245H14.7243C14.7036 4.75245 14.6854 4.73907 14.6793 4.72083C14.672 4.70138 14.6793 4.6807 14.6939 4.66733C14.8765 4.52018 15.1055 4.41803 15.3551 4.36939C15.4245 4.35602 15.4744 4.29643 15.4744 4.22833V3.6957C15.4744 3.5668 15.3904 3.45614 15.2686 3.42574C14.84 3.31994 14.4771 3.04876 14.2738 2.68273C14.2653 2.66692 14.2665 2.64625 14.2774 2.63166C14.2884 2.61706 14.3067 2.60855 14.3249 2.61341C14.7048 2.68759 15.2467 2.67786 15.6729 2.59031C16.1222 2.49789 16.6885 2.49059 17.0806 2.57207C17.0952 2.57572 17.1073 2.58423 17.1146 2.59882C17.1207 2.6122 17.1207 2.62801 17.1146 2.64138C16.9162 3.0293 16.5448 3.31508 16.0967 3.42695C15.9761 3.45735 15.8909 3.56801 15.8909 3.69692V4.22955C15.8909 4.29765 15.9408 4.35723 16.0102 4.37061C16.2598 4.41925 16.4888 4.5214 16.6714 4.66854C16.6872 4.6807 16.6933 4.70259 16.686 4.72205C16.6787 4.7415 16.6617 4.75367 16.641 4.75367L16.6422 4.75245ZM14.8753 4.65638H16.4924C16.3451 4.56396 16.1758 4.4983 15.9932 4.46303C15.8787 4.44114 15.7959 4.34143 15.7959 4.22712V3.69449C15.7959 3.52181 15.9104 3.37223 16.0735 3.33089C16.4729 3.23239 16.8066 2.98552 16.999 2.65111C16.6215 2.58544 16.1076 2.5976 15.6936 2.68151C15.2942 2.76299 14.7937 2.77758 14.4126 2.72164C14.6099 3.01958 14.9252 3.23847 15.2942 3.32967C15.4574 3.3698 15.5718 3.51937 15.5718 3.69327V4.2259C15.5718 4.34021 15.489 4.43871 15.3746 4.46181C15.1919 4.49708 15.0227 4.56275 14.8753 4.65517V4.65638Z" fill="#21365F"/>
<path d="M14.213 2.47119C14.7073 2.47119 15.108 2.07102 15.108 1.57739C15.108 1.08376 14.7073 0.683594 14.213 0.683594C13.7187 0.683594 13.318 1.08376 13.318 1.57739C13.318 2.07102 13.7187 2.47119 14.213 2.47119Z" fill="white"/>
<path d="M14.8291 0.933594C14.8437 0.998045 14.8522 1.06493 14.8522 1.13424C14.8522 1.62796 14.4516 2.02804 13.9572 2.02804C13.7185 2.02804 13.5018 1.93441 13.3411 1.7824C13.4324 2.17883 13.788 2.47555 14.2129 2.47555C14.7073 2.47555 15.1079 2.07547 15.1079 1.58175C15.1079 1.32638 15.0008 1.09776 14.8291 0.934811V0.933594Z" fill="#BDC3D8"/>
<path d="M14.2129 2.51917C13.6929 2.51917 13.2704 2.0972 13.2704 1.57794C13.2704 1.05869 13.6929 0.636719 14.2129 0.636719C14.7328 0.636719 15.1554 1.05869 15.1554 1.57794C15.1554 2.0972 14.7328 2.51917 14.2129 2.51917ZM14.2129 0.731571C13.7465 0.731571 13.3666 1.11098 13.3666 1.57672C13.3666 2.04247 13.7465 2.42188 14.2129 2.42188C14.6793 2.42188 15.0592 2.04247 15.0592 1.57672C15.0592 1.11098 14.6793 0.731571 14.2129 0.731571Z" fill="#21365F"/>
<path d="M14.2129 1.62806H13.3179C13.2911 1.62806 13.2704 1.60617 13.2704 1.58063C13.2704 1.5551 13.2923 1.53321 13.3179 1.53321H14.1642V0.688053C14.1642 0.6613 14.1861 0.640625 14.2117 0.640625C14.2372 0.640625 14.2591 0.662516 14.2591 0.688053V1.58185C14.2591 1.6086 14.2372 1.62928 14.2117 1.62928L14.2129 1.62806Z" fill="#21365F"/>
<path d="M13.5797 2.25707C13.5675 2.25707 13.5553 2.25221 13.5456 2.2437C13.5273 2.22546 13.5273 2.19506 13.5456 2.1756L14.8107 0.912118C14.829 0.893877 14.8594 0.893877 14.8789 0.912118C14.8984 0.930359 14.8972 0.96076 14.8789 0.980217L13.6137 2.2437C13.604 2.25343 13.5918 2.25707 13.5797 2.25707Z" fill="#21365F"/>
<path d="M14.8461 2.25753C14.8339 2.25753 14.8217 2.25267 14.812 2.24416L13.5468 0.980676C13.5285 0.962436 13.5285 0.932035 13.5468 0.912578C13.565 0.893121 13.5955 0.894337 13.615 0.912578L14.8802 2.17606C14.8984 2.1943 14.8984 2.2247 14.8802 2.24416C14.8704 2.25389 14.8582 2.25753 14.8461 2.25753Z" fill="#21365F"/>
<path d="M14.9118 2.76068C14.6938 2.76068 14.4832 2.74365 14.3066 2.70961C14.2932 2.70717 14.2811 2.69866 14.2737 2.68528C14.1581 2.47855 14.1008 2.25723 14.1008 2.02618C14.1008 1.89485 14.1081 1.7246 14.1678 1.56286C14.1751 1.54341 14.1922 1.53125 14.2129 1.53125H17.044C17.1219 1.53125 17.1925 1.58476 17.2132 1.66015C17.2473 1.77932 17.2644 1.90215 17.2644 2.02618C17.2644 2.24021 17.2132 2.44815 17.1134 2.64272C17.1036 2.66218 17.0817 2.67191 17.061 2.66826C16.6799 2.58922 16.1295 2.59773 15.6911 2.6865C15.4512 2.73514 15.1748 2.76068 14.9106 2.76068H14.9118ZM14.3468 2.61961C14.7255 2.68893 15.254 2.67799 15.6729 2.59286C16.1088 2.50409 16.6543 2.49436 17.044 2.56733C17.1268 2.39586 17.1682 2.21346 17.1682 2.02618C17.1682 1.91188 17.1524 1.79757 17.1207 1.6869C17.111 1.65164 17.0793 1.62732 17.0428 1.62732H14.2457C14.2019 1.76595 14.1958 1.91188 14.1958 2.02618C14.1958 2.23291 14.247 2.43234 14.3468 2.61961Z" fill="#21365F"/>
<path d="M3.74328 18.8179H5.75977V17.9727C5.75977 17.8231 5.65262 17.6967 5.50528 17.6711L5.21303 17.6213C5.19355 17.6176 5.17407 17.6128 5.1558 17.6055H4.34604C4.32777 17.6128 4.30829 17.6188 4.28881 17.6213L3.99656 17.6711C3.84922 17.6967 3.74207 17.8231 3.74207 17.9727V18.8179H3.74328Z" fill="white"/>
<path d="M5.7694 18.0508H5.08506C4.54928 18.0508 4.08899 18.3755 3.89172 18.84H5.76818V18.0508H5.7694Z" fill="#BDC3D8"/>
<path d="M5.76951 18.884H3.73354C3.7104 18.884 3.69092 18.8646 3.69092 18.8415V17.9805C3.69092 17.7944 3.82365 17.6364 4.00752 17.6047L4.29002 17.5561C4.30463 17.5537 4.31925 17.5488 4.33386 17.5427C4.33873 17.5403 4.34482 17.5391 4.35091 17.5391H5.15093C5.15093 17.5391 5.1631 17.5403 5.16797 17.5427C5.18259 17.5488 5.1972 17.5537 5.21181 17.5561L5.49431 17.6047C5.67819 17.6364 5.81091 17.7944 5.81091 17.9805V18.8415C5.81091 18.8646 5.79143 18.884 5.76829 18.884H5.76951ZM3.77616 18.7989H5.72689V17.9805C5.72689 17.8358 5.62339 17.713 5.48092 17.6886L5.19842 17.64C5.18015 17.6363 5.16067 17.6315 5.14362 17.6242H4.36065C4.34238 17.6315 4.32412 17.6363 4.30585 17.64L4.02335 17.6886C3.88088 17.713 3.77737 17.8358 3.77737 17.9805V18.7989H3.77616Z" fill="#21365F"/>
<path d="M4.50669 17.3164L4.47869 17.4295C4.46164 17.4976 4.41415 17.5535 4.35083 17.5815L4.75145 17.7408L5.15085 17.5815C5.08875 17.5535 5.04004 17.4988 5.02299 17.4295L4.99498 17.3164H4.50669Z" fill="white"/>
<path d="M5.15082 17.5815C5.08872 17.5535 5.04001 17.4988 5.02297 17.4295L4.99496 17.3164H4.72829L4.67958 17.5073C4.66375 17.5718 4.63087 17.6289 4.58704 17.6751L4.75021 17.7396L5.14961 17.5803L5.15082 17.5815Z" fill="#BDC3D8"/>
<path d="M4.75146 17.7844C4.75146 17.7844 4.74051 17.7844 4.73564 17.782L4.33502 17.6227C4.31919 17.6166 4.30823 17.6008 4.30823 17.5838C4.30823 17.5668 4.31797 17.551 4.3338 17.5449C4.38616 17.5218 4.42391 17.4768 4.4373 17.4221L4.46531 17.309C4.47018 17.2907 4.48723 17.2773 4.50671 17.2773H4.995C5.01448 17.2773 5.03154 17.2907 5.03641 17.309L5.06441 17.4221C5.07781 17.4768 5.11555 17.5218 5.16792 17.5449C5.18375 17.5522 5.19349 17.568 5.19349 17.5838C5.19349 17.6008 5.18253 17.6154 5.1667 17.6227L4.76729 17.782C4.76729 17.782 4.75633 17.7844 4.75146 17.7844ZM4.44217 17.5728L4.75146 17.6957L5.06076 17.5728C5.02301 17.5376 4.99622 17.4926 4.98283 17.4415L4.96213 17.36H4.53959L4.51889 17.4415C4.50549 17.4926 4.4787 17.5388 4.44096 17.5728H4.44217Z" fill="#21365F"/>
<path d="M5.23491 16.8516C5.23491 17.1763 5.01816 17.439 4.75149 17.439C4.48482 17.439 4.26807 17.1763 4.26807 16.8516C4.26807 16.5269 4.48482 16.3555 4.75149 16.3555C5.01816 16.3555 5.23491 16.5269 5.23491 16.8516Z" fill="white"/>
<path d="M5.23484 16.8518C5.23484 16.701 5.18857 16.5843 5.11186 16.5016C5.05341 16.4797 4.98887 16.4688 4.9219 16.4688C4.65523 16.4688 4.43848 16.6402 4.43848 16.9649C4.43848 17.1449 4.50545 17.3066 4.61017 17.4136C4.65523 17.4306 4.70271 17.4392 4.75264 17.4392C5.01931 17.4392 5.23606 17.1765 5.23606 16.8518H5.23484Z" fill="#BDC3D8"/>
<path d="M4.7515 17.4811C4.46169 17.4811 4.22546 17.199 4.22546 16.8512C4.22546 16.529 4.43734 16.3125 4.7515 16.3125C5.06567 16.3125 5.27754 16.529 5.27754 16.8512C5.27754 17.199 5.04131 17.4811 4.7515 17.4811ZM4.7515 16.3976C4.48361 16.3976 4.3107 16.5752 4.3107 16.8512C4.3107 17.1516 4.50796 17.3972 4.7515 17.3972C4.99504 17.3972 5.19231 17.1528 5.19231 16.8512C5.19231 16.5752 5.01939 16.3976 4.7515 16.3976Z" fill="#21365F"/>
<path d="M4.15736 18.8826C4.13416 18.8826 4.11462 18.8631 4.11462 18.84V18.0933C4.11462 18.0702 4.13416 18.0508 4.15736 18.0508C4.18056 18.0508 4.2001 18.0702 4.2001 18.0933V18.84C4.2001 18.8631 4.18056 18.8826 4.15736 18.8826Z" fill="#21365F"/>
<path d="M4.75027 16.7202C4.54935 16.646 4.38252 16.6655 4.28754 16.6898C4.27415 16.7385 4.26685 16.792 4.26685 16.8503C4.26685 17.175 4.48359 17.4377 4.75027 17.4377C5.01694 17.4377 5.23369 17.175 5.23369 16.8503C5.23369 16.809 5.23004 16.7701 5.22395 16.7348C5.11192 16.764 4.93292 16.7883 4.75027 16.7214V16.7202Z" fill="white"/>
<path d="M5.23488 16.853C5.23488 16.8116 5.23123 16.7727 5.22514 16.7374C5.11311 16.7666 4.93411 16.7909 4.75146 16.7241C4.73319 16.7168 4.71493 16.7119 4.69666 16.707C4.60655 16.7909 4.55176 16.915 4.55176 17.0804C4.55176 17.2105 4.58707 17.3296 4.64552 17.4269C4.67961 17.4367 4.71493 17.4415 4.75268 17.4415C5.01935 17.4415 5.2361 17.1789 5.2361 16.8542L5.23488 16.853Z" fill="#BDC3D8"/>
<path d="M4.7515 17.4834C4.46169 17.4834 4.22546 17.2013 4.22546 16.8535C4.22546 16.7927 4.23277 16.7355 4.24738 16.682C4.25103 16.6674 4.26321 16.6553 4.27782 16.6516C4.3862 16.6248 4.55911 16.6078 4.7649 16.6832C4.93416 16.7452 5.1022 16.7246 5.21301 16.6954C5.22397 16.693 5.23615 16.6954 5.24589 16.7002C5.25563 16.7063 5.26293 16.7173 5.26537 16.7282C5.27267 16.7671 5.27633 16.8097 5.27633 16.8523C5.27633 17.2 5.0401 17.4822 4.75029 17.4822L4.7515 17.4834ZM4.3241 16.7282C4.31557 16.7671 4.3107 16.8097 4.3107 16.8535C4.3107 17.1538 4.50796 17.3995 4.7515 17.3995C4.99504 17.3995 5.19231 17.1551 5.19231 16.8535C5.19231 16.8316 5.19231 16.8097 5.18866 16.789C5.0681 16.8146 4.90372 16.8255 4.73568 16.7635C4.5652 16.7002 4.42029 16.7075 4.32288 16.7282H4.3241Z" fill="#21365F"/>
<path d="M4.75145 17.7413L4.42755 17.959L4.35083 17.582L4.75145 17.7413Z" fill="white"/>
<path d="M4.42752 18.0012C4.42752 18.0012 4.41656 18.0012 4.41169 17.9975C4.39829 17.9926 4.38855 17.9805 4.38611 17.9671L4.3094 17.5901C4.30575 17.5743 4.31184 17.5597 4.32401 17.5488C4.33619 17.5391 4.35202 17.5366 4.36663 17.5415L4.76725 17.7008C4.78186 17.7069 4.7916 17.7203 4.79404 17.7361C4.79526 17.7519 4.78917 17.7665 4.77578 17.7762L4.45187 17.9939C4.44456 17.9987 4.43604 18.0012 4.42873 18.0012H4.42752ZM4.40803 17.6497L4.45674 17.8881L4.66131 17.7507L4.40803 17.6497Z" fill="#21365F"/>
<path d="M4.75146 17.7413L5.07537 17.959L5.15087 17.582L4.75146 17.7413Z" fill="white"/>
<path d="M5.07537 18.002C5.06684 18.002 5.05832 17.9996 5.05223 17.9947L4.72833 17.777C4.71493 17.7685 4.70762 17.7527 4.71006 17.7369C4.71128 17.7211 4.72224 17.7077 4.73685 17.7016L5.13747 17.5423C5.15208 17.5362 5.16791 17.5387 5.18009 17.5496C5.19227 17.5593 5.19714 17.5752 5.1947 17.591L5.11798 17.9679C5.11555 17.9813 5.10581 17.9935 5.09241 17.9983C5.08754 18.0008 5.08145 18.002 5.07658 18.002H5.07537ZM4.84157 17.7515L5.04614 17.8889L5.09363 17.6506L4.84035 17.7515H4.84157Z" fill="#21365F"/>
<path d="M4.75132 17.7835C4.7404 17.7835 4.72949 17.7787 4.72099 17.7714C4.7125 17.7642 4.70886 17.7533 4.70886 17.7412C4.70886 17.7303 4.71371 17.7195 4.72099 17.711C4.73677 17.6953 4.76467 17.6953 4.78045 17.711C4.78773 17.7182 4.79258 17.7303 4.79258 17.7412C4.79258 17.7521 4.78773 17.763 4.78045 17.7714C4.77317 17.7799 4.76225 17.7835 4.75011 17.7835H4.75132Z" fill="#21365F"/>
<path d="M4.70886 18.4816C4.70886 18.4585 4.7284 18.439 4.7516 18.439C4.7748 18.439 4.79433 18.4585 4.79433 18.4816C4.79433 18.5047 4.77602 18.5242 4.7516 18.5242C4.7284 18.5242 4.70886 18.5059 4.70886 18.4816ZM4.70886 18.2347C4.70886 18.2116 4.7284 18.1922 4.7516 18.1922C4.7748 18.1922 4.79433 18.2116 4.79433 18.2347C4.79433 18.2578 4.77602 18.2773 4.7516 18.2773C4.7284 18.2773 4.70886 18.2591 4.70886 18.2347ZM4.70886 17.9879C4.70886 17.9648 4.7284 17.9453 4.7516 17.9453C4.7748 17.9453 4.79433 17.9648 4.79433 17.9879C4.79433 18.011 4.77602 18.0304 4.7516 18.0304C4.7284 18.0304 4.70886 18.0122 4.70886 17.9879Z" fill="#21365F"/>
<path d="M4.75132 18.7679C4.7404 18.7679 4.72949 18.763 4.72099 18.7558C4.7125 18.7485 4.70886 18.7377 4.70886 18.7256C4.70886 18.7135 4.71371 18.7038 4.72099 18.6954C4.73677 18.6797 4.76467 18.6797 4.78045 18.6954C4.78773 18.7026 4.79258 18.7147 4.79258 18.7256C4.79258 18.7365 4.78773 18.7473 4.78045 18.7558C4.77317 18.7642 4.76225 18.7679 4.75011 18.7679H4.75132Z" fill="#21365F"/>
<path d="M5.34462 18.885C5.32142 18.885 5.30188 18.8656 5.30188 18.8425V18.0387C5.30188 18.0156 5.32142 17.9961 5.34462 17.9961C5.36782 17.9961 5.38735 18.0156 5.38735 18.0387V18.8425C5.38735 18.8656 5.36782 18.885 5.34462 18.885Z" fill="#21365F"/>
<path d="M7.08831 18.7266H3.54483C3.52398 18.7266 3.50708 18.7434 3.50708 18.7643V19.0281C3.50708 19.049 3.52398 19.0658 3.54483 19.0658H7.08831C7.10915 19.0658 7.12605 19.049 7.12605 19.0281V18.7643C7.12605 18.7434 7.10915 18.7266 7.08831 18.7266Z" fill="white"/>
<path d="M7.06997 19.0675H4.07324C4.07324 18.9738 4.14874 18.8984 4.2425 18.8984H7.12599V19.0115C7.12599 19.0431 7.10041 19.0675 7.06997 19.0675Z" fill="#BDC3D8"/>
<path d="M6.84346 19.9711H3.7895L3.62024 19.0664H7.01272L6.84346 19.9711Z" fill="white"/>
<path d="M6.84342 19.9705H4.24243C4.24243 19.6592 4.49571 19.4062 4.80744 19.4062H6.94935L6.84342 19.9705Z" fill="#BDC3D8"/>
<path d="M7.06993 19.1068H3.56421C3.50941 19.1068 3.46558 19.063 3.46558 19.0083V18.7821C3.46558 18.7274 3.50941 18.6836 3.56421 18.6836H7.06993C7.12473 18.6836 7.16857 18.7274 7.16857 18.7821V19.0083C7.16857 19.063 7.12473 19.1068 7.06993 19.1068ZM3.56421 18.7675C3.5569 18.7675 3.5496 18.7736 3.5496 18.7821V19.0083C3.5496 19.0156 3.55568 19.0229 3.56421 19.0229H7.06993C7.07724 19.0229 7.08455 19.0168 7.08455 19.0083V18.7821C7.08455 18.7748 7.07846 18.7675 7.06993 18.7675H3.56421Z" fill="#21365F"/>
<path d="M6.8434 20.0121H3.78943C3.76873 20.0121 3.75169 19.9975 3.74803 19.978L3.57878 19.0745C3.57634 19.0623 3.57877 19.049 3.5873 19.0392C3.59582 19.0295 3.60678 19.0234 3.62018 19.0234H7.01266C7.02484 19.0234 7.03701 19.0295 7.04553 19.0392C7.05406 19.049 7.05649 19.0623 7.05406 19.0745L6.8848 19.978C6.88115 19.9975 6.8641 20.0121 6.8434 20.0121ZM3.82475 19.927H6.80809L6.96151 19.1086H3.67132L3.82475 19.927Z" fill="#21365F"/>
<path d="M6.47567 19.7882H5.81447C5.79133 19.7882 5.77185 19.7688 5.77185 19.7457C5.77185 19.7226 5.79133 19.7031 5.81447 19.7031H6.47567C6.49881 19.7031 6.51829 19.7226 6.51829 19.7457C6.51829 19.7688 6.49881 19.7882 6.47567 19.7882Z" fill="#21365F"/>
<path d="M5.58843 19.7882H5.45778C5.43458 19.7882 5.41504 19.7688 5.41504 19.7457C5.41504 19.7226 5.43458 19.7031 5.45778 19.7031H5.58843C5.61163 19.7031 5.63117 19.7226 5.63117 19.7457C5.63117 19.7688 5.61163 19.7882 5.58843 19.7882Z" fill="#21365F"/>
<path d="M6.10803 18.726C6.10803 18.5387 6.26024 18.3867 6.44777 18.3867C6.63529 18.3867 6.7875 18.5387 6.7875 18.726H6.10925H6.10803Z" fill="white"/>
<path d="M6.44767 18.3879C6.41844 18.3879 6.39043 18.3916 6.36243 18.3989C6.50855 18.4366 6.61692 18.5691 6.61692 18.726H6.78618C6.78618 18.5387 6.63397 18.3867 6.44645 18.3867L6.44767 18.3879Z" fill="#BDC3D8"/>
<path d="M6.7874 18.7708H6.10915C6.08601 18.7708 6.06653 18.7514 6.06653 18.7283C6.06653 18.5179 6.23822 18.3477 6.44767 18.3477C6.65711 18.3477 6.8288 18.5191 6.8288 18.7283C6.8288 18.7514 6.80932 18.7708 6.78618 18.7708H6.7874ZM6.1542 18.6857H6.74234C6.72164 18.5422 6.59744 18.4316 6.44888 18.4316C6.30032 18.4316 6.17612 18.5422 6.15542 18.6857H6.1542Z" fill="#21365F"/>
<path d="M6.44777 18.432C6.42457 18.432 6.40503 18.4125 6.40503 18.3894V18.3043C6.40503 18.2812 6.42457 18.2617 6.44777 18.2617C6.47097 18.2617 6.4905 18.2812 6.4905 18.3043V18.3894C6.4905 18.4125 6.47097 18.432 6.44777 18.432Z" fill="#21365F"/>
<path d="M6.39051 17.8245C6.79671 17.8245 7.126 17.4956 7.126 17.09C7.126 16.6843 6.79671 16.3555 6.39051 16.3555C5.98432 16.3555 5.65503 16.6843 5.65503 17.09C5.65503 17.4956 5.98432 17.8245 6.39051 17.8245Z" fill="white"/>
<path d="M6.91042 16.5703C6.93112 16.6384 6.94208 16.7089 6.94208 16.7843C6.94208 17.1893 6.61331 17.5188 6.2066 17.5188C6.00324 17.5188 5.82059 17.4374 5.68665 17.3036C5.77797 17.6052 6.05804 17.8241 6.39047 17.8241C6.79596 17.8241 7.12595 17.4957 7.12595 17.0896C7.12595 16.8865 7.04315 16.7029 6.91042 16.5703Z" fill="#BDC3D8"/>
<path d="M6.39041 17.8666C5.96178 17.8666 5.6123 17.5188 5.6123 17.0896C5.6123 16.6603 5.96057 16.3125 6.39041 16.3125C6.82025 16.3125 7.16851 16.6603 7.16851 17.0896C7.16851 17.5188 6.82025 17.8666 6.39041 17.8666ZM6.39041 16.3988C6.00806 16.3988 5.69754 16.7089 5.69754 17.0908C5.69754 17.4726 6.00806 17.7827 6.39041 17.7827C6.77276 17.7827 7.08327 17.4726 7.08327 17.0908C7.08327 16.7089 6.77276 16.3988 6.39041 16.3988Z" fill="#21365F"/>
<path d="M6.39043 16.8779C6.46038 16.8779 6.51707 16.8213 6.51707 16.7515C6.51707 16.6816 6.46038 16.625 6.39043 16.625C6.32049 16.625 6.26379 16.6816 6.26379 16.7515C6.26379 16.8213 6.32049 16.8779 6.39043 16.8779Z" fill="white"/>
<path d="M6.39045 16.9201C6.29669 16.9201 6.22119 16.8447 6.22119 16.7511C6.22119 16.6574 6.29669 16.582 6.39045 16.582C6.48421 16.582 6.55971 16.6574 6.55971 16.7511C6.55971 16.8447 6.48421 16.9201 6.39045 16.9201ZM6.39045 16.6659C6.34418 16.6659 6.30521 16.7036 6.30521 16.7511C6.30521 16.7985 6.34296 16.8362 6.39045 16.8362C6.43794 16.8362 6.47569 16.7985 6.47569 16.7511C6.47569 16.7036 6.43794 16.6659 6.39045 16.6659Z" fill="#21365F"/>
<path d="M6.50556 17.0625H6.27844V17.5149H6.50556V17.0625Z" fill="white"/>
<path d="M6.50373 17.557H6.27724C6.2541 17.557 6.23462 17.5376 6.23462 17.5145V17.0621C6.23462 17.039 6.2541 17.0195 6.27724 17.0195H6.50373C6.52686 17.0195 6.54635 17.039 6.54635 17.0621V17.5145C6.54635 17.5376 6.52686 17.557 6.50373 17.557ZM6.31986 17.4719H6.46111V17.1047H6.31986V17.4719Z" fill="#21365F"/>
<path d="M6.50371 17.1047H6.22121C6.19807 17.1047 6.17859 17.0852 6.17859 17.0621C6.17859 17.039 6.19807 17.0195 6.22121 17.0195H6.50371C6.52685 17.0195 6.54633 17.039 6.54633 17.0621C6.54633 17.0852 6.52685 17.1047 6.50371 17.1047Z" fill="#21365F"/>
<path d="M6.56094 17.5539H6.22121C6.19807 17.5539 6.17859 17.5344 6.17859 17.5113C6.17859 17.4882 6.19807 17.4688 6.22121 17.4688H6.56094C6.58408 17.4688 6.60356 17.4882 6.60356 17.5113C6.60356 17.5344 6.58408 17.5539 6.56094 17.5539Z" fill="#21365F"/>
<path d="M59.5072 6.08203V23.8364" stroke="#FF8200" stroke-width="1.65808" stroke-miterlimit="10"/>
<path d="M25.4497 6.01953V23.7739" stroke="#FF8200" stroke-width="1.65808" stroke-miterlimit="10"/>
<path d="M34.1257 23.7974H25.8284V6.00781H33.8469C37.4756 6.00781 39.6321 7.80757 39.6321 10.6203C39.6321 12.7739 38.3377 14.1675 36.6122 14.6746C38.6932 15.1051 40.0376 16.9304 40.0376 18.9576C40.0376 21.8968 37.8811 23.7974 34.1245 23.7974H34.1257ZM33.0091 9.47965H30.167V13.2044H33.0091C34.4301 13.2044 35.2168 12.5708 35.2168 11.3548C35.2168 10.1387 34.4301 9.47965 33.0091 9.47965ZM33.3135 16.3722H30.167V20.3001H33.3646C34.8113 20.3001 35.6478 19.641 35.6478 18.3739C35.6478 17.1067 34.7601 16.3722 33.3135 16.3722Z" fill="#222240"/>
<path d="M47.9281 9.45312C50.0347 9.45312 51.5313 10.4162 52.2923 11.6578V9.65621H56.631V23.7965H52.2923V21.7948C51.5057 23.0364 50.0092 23.9995 47.9026 23.9995C44.4516 23.9995 41.6863 21.1613 41.6863 16.7008C41.6863 12.2403 44.4516 9.45312 47.9281 9.45312ZM49.197 13.229C47.5726 13.229 46.1016 14.445 46.1016 16.7008C46.1016 18.9566 47.5738 20.2237 49.197 20.2237C50.8202 20.2237 52.2923 18.9821 52.2923 16.7263C52.2923 14.4706 50.8457 13.229 49.197 13.229Z" fill="#222240"/>
<path d="M67.0592 6.00781C71.4234 6.00781 73.6055 8.51653 73.6055 11.6089C73.6055 13.8392 72.3878 15.9417 69.6468 16.7529L73.7577 23.7974H68.8602L65.1548 17.0824H64.1149V23.7974H59.7762V6.00781H67.0592ZM66.806 9.60611H64.1161V14.0155H66.806C68.4304 14.0155 69.1914 13.1789 69.1914 11.7853C69.1914 10.4671 68.4304 9.60611 66.806 9.60611Z" fill="#222240"/>
<path d="M82.6129 23.9995C78.4508 23.9995 75.4578 21.2124 75.4578 16.7263C75.4578 12.2403 78.4009 9.45312 82.6129 9.45312C86.8249 9.45312 89.667 12.1905 89.667 16.4977C89.667 16.9027 89.6414 17.3344 89.5903 17.7648H79.7708C79.923 19.6145 81.0652 20.4766 82.4607 20.4766C83.6784 20.4766 84.3639 19.8686 84.7195 19.1086H89.3382C88.6526 21.8702 86.1405 23.9995 82.6141 23.9995H82.6129ZM79.7964 15.3583H85.2273C85.2273 13.8127 84.0096 12.9262 82.563 12.9262C81.1164 12.9262 80.0509 13.7884 79.7976 15.3583H79.7964Z" fill="#222240"/>
<path d="M97.7097 23.9995C93.9288 23.9995 91.3911 21.8958 91.189 19.1597H95.4764C95.5787 20.1483 96.4664 20.8062 97.6585 20.8062C98.7752 20.8062 99.3584 20.2991 99.3584 19.6655C99.3584 17.3854 91.6444 19.032 91.6444 13.837C91.6444 11.4304 93.6998 9.45312 97.404 9.45312C101.108 9.45312 103.088 11.4803 103.367 14.2675H99.3584C99.2318 13.3044 98.4951 12.6708 97.2774 12.6708C96.2619 12.6708 95.7041 13.0757 95.7041 13.7604C95.7041 16.0162 103.367 14.4195 103.444 19.6899C103.444 22.1475 101.262 23.9983 97.7085 23.9983L97.7097 23.9995Z" fill="#222240"/>
<path d="M106.792 13.2555H105.067V9.65723H106.792V6.21094H111.132V9.65723H113.974V13.2555H111.132V18.9321C111.132 19.7687 111.488 20.1238 112.452 20.1238H114V23.7975H111.792C108.849 23.7975 106.794 22.5559 106.794 18.881V13.2555H106.792Z" fill="#222240"/>
</svg>
